<svg xmlns="http://www.w3.org/2000/svg" width="512" height="512" viewBox="0 0 512 512" version="1.1">
	<path d="M 178.500 17.894 C 173.550 18.228, 168.517 19.063, 167.316 19.750 C 166.114 20.437, 163.049 21, 160.504 21 C 155.940 21, 146.400 23.478, 144.550 25.145 C 144.028 25.615, 142.903 26.003, 142.050 26.006 C 141.198 26.010, 139.211 26.685, 137.636 27.506 C 136.060 28.328, 134.252 29, 133.618 29 C 132.983 29, 130.809 30.125, 128.785 31.500 C 126.762 32.875, 124.254 34, 123.213 34 C 120.945 34, 99.333 48.018, 89.500 55.866 C 70.434 71.083, 47.790 99.509, 35.223 124 C 28.933 136.260, 18.188 163.450, 16.058 172.500 C 15.411 175.250, 14.259 179.975, 13.499 183 C 8.325 203.597, 6.391 221.767, 6.740 246.500 C 7.053 268.666, 9.367 293.705, 11.914 302.500 C 13.029 306.350, 13.955 310.540, 13.971 311.812 C 13.987 313.084, 14.729 316.459, 15.619 319.312 C 19.712 332.427, 23.281 342.582, 24.102 343.450 C 24.596 343.973, 25 345.033, 25 345.807 C 25 347.737, 35.758 370.502, 40.213 378 C 47.420 390.131, 55.778 401.957, 62.098 408.967 C 63.526 410.552, 65.954 413.345, 67.492 415.175 C 71.119 419.488, 94.196 439.969, 95.500 440.032 C 96.050 440.059, 98.058 441.413, 99.962 443.041 C 101.866 444.668, 103.768 446, 104.189 446 C 104.609 446, 107.972 448.025, 111.662 450.500 C 115.353 452.975, 118.783 455, 119.286 455 C 119.789 455, 123.868 456.715, 128.350 458.812 C 132.833 460.908, 138.525 463.186, 141 463.873 C 143.475 464.560, 147.750 465.781, 150.500 466.587 C 153.250 467.393, 157.924 468.490, 160.886 469.026 C 168.316 470.369, 212.800 470.271, 218.736 468.898 C 232.554 465.702, 245.128 461.962, 247.681 460.289 C 249.370 459.183, 251.481 458.982, 256.213 459.477 C 270.231 460.946, 292.562 459.740, 301.500 457.031 C 303.700 456.365, 307.750 455.450, 310.500 455 C 317.425 453.866, 321.978 452.585, 325.500 450.780 C 327.150 449.934, 331.803 448.058, 335.839 446.611 C 339.875 445.163, 351.350 439.996, 361.339 435.128 C 376.948 427.521, 383.772 424.903, 403.571 418.927 C 405.260 418.417, 407.585 418, 408.738 418 C 409.891 418, 412.934 417.100, 415.500 416 C 418.066 414.900, 422.352 414, 425.024 414 C 427.696 414, 430.160 413.550, 430.500 413 C 430.867 412.406, 437.157 412, 446 412 C 454.843 412, 461.133 412.406, 461.500 413 C 461.840 413.550, 463.381 414, 464.926 414 C 468.852 414, 477.452 417.637, 484.239 422.169 C 487.395 424.276, 490.380 426, 490.872 426 C 492.324 426, 492.646 423.087, 492.364 412.500 C 492.013 399.323, 487.925 381.712, 482.963 372 C 481.979 370.075, 480.158 366.250, 478.916 363.500 C 477.674 360.750, 474.934 356.064, 472.829 353.087 C 470.723 350.110, 469 347.169, 469 346.551 C 469 345.027, 450.706 326.434, 444.497 321.648 C 441.749 319.530, 437.475 316.713, 435 315.389 C 432.525 314.065, 429.602 312.424, 428.504 311.741 C 427.407 311.058, 425.382 309.796, 424.004 308.936 C 422.627 308.076, 419.475 306.751, 417 305.992 C 414.525 305.233, 410.475 303.765, 408 302.731 C 403.406 300.812, 398.572 299.573, 389.250 297.927 C 386.363 297.417, 381.413 296.501, 378.250 295.892 C 369.759 294.256, 347.349 293.668, 341.250 294.921 C 338.363 295.515, 333.413 296.471, 330.250 297.047 C 320.808 298.765, 310.738 301.207, 306.842 302.721 C 303.862 303.880, 302.791 305.103, 301.059 309.322 C 299.890 312.170, 298.505 315.175, 297.982 316 C 297.458 316.825, 296.381 318.939, 295.588 320.697 C 293.482 325.367, 286.925 334.761, 281.765 340.500 C 279.293 343.250, 276.422 346.853, 275.385 348.507 C 270.438 356.397, 251.891 370.561, 236.259 378.387 C 220.025 386.514, 195.851 391.823, 183.228 390.032 C 172.314 388.484, 171.248 387.831, 168.071 380.751 C 163.660 370.918, 162.570 364.981, 164.034 358.750 C 165.965 350.528, 170.371 341.675, 174.137 338.449 C 176.030 336.827, 179.361 332.613, 181.540 329.085 C 187.491 319.446, 190.929 316.396, 196.674 315.660 C 199.328 315.320, 205.325 315.527, 210 316.121 C 214.675 316.715, 219.850 317.139, 221.500 317.063 C 244.510 316.001, 251.957 316.009, 255.846 317.097 C 263.368 319.202, 272.501 318.006, 280.684 313.844 C 283.578 312.372, 285.386 307.769, 284.710 303.599 C 283.668 297.181, 272.178 284.574, 255.454 271.500 C 250.530 267.650, 240.402 258.425, 232.948 251 C 225.494 243.575, 216.710 235.432, 213.427 232.905 C 204.727 226.209, 200.203 219.131, 198.555 209.639 C 197.685 204.628, 197.522 200.658, 198.086 198.228 C 198.563 196.177, 198.963 192.665, 198.976 190.422 C 198.989 188.180, 200.149 183.516, 201.554 180.060 C 202.959 176.603, 203.815 173.488, 203.456 173.137 C 202.230 171.938, 197.227 179.150, 195.519 184.577 C 194.581 187.560, 193.454 190, 193.014 190 C 190.554 190, 190.330 180.027, 192.572 170.312 C 195.700 156.757, 203.125 145.268, 214.812 135.899 C 219.041 132.510, 222.650 129.346, 222.833 128.869 C 223.016 128.392, 222.379 127.699, 221.418 127.330 C 217.256 125.733, 199.039 139.056, 195.325 146.411 C 193.286 150.450, 189.933 154.077, 188.855 153.410 C 186.522 151.969, 188.905 138.925, 194.228 124 C 198.133 113.051, 206.392 100.355, 214.891 92.237 C 216.770 90.442, 218.059 88.725, 217.755 88.421 C 216.462 87.129, 209.127 90.261, 204.500 94.081 C 200.105 97.709, 197.590 100.798, 192.759 108.500 C 192.070 109.600, 190.515 111.901, 189.306 113.613 C 188.096 115.326, 186.797 118.026, 186.417 119.613 C 186.038 121.201, 185.106 123.625, 184.347 125 C 183.587 126.375, 182.143 129.975, 181.138 133 C 180.133 136.025, 178.635 138.632, 177.809 138.794 C 176.952 138.961, 174.512 136.711, 172.132 133.558 C 169.836 130.517, 166.697 127.377, 165.156 126.581 C 163.615 125.784, 161.770 124.427, 161.055 123.566 C 159.674 121.902, 156 121.402, 156 122.878 C 156 123.360, 156.664 124.307, 157.476 124.980 C 158.288 125.654, 161.396 129.872, 164.382 134.353 C 171.413 144.903, 175.992 157.991, 176.020 167.619 C 176.042 175.029, 181.092 197.290, 184.954 207 C 186.157 210.025, 189.623 217.138, 192.656 222.807 C 195.689 228.476, 197.921 233.764, 197.616 234.557 C 197.282 235.428, 195.697 236, 193.620 236 C 188.900 236, 186.481 232.875, 177.945 215.750 C 169.596 198.999, 165.469 192.059, 157.736 181.760 C 149.019 170.149, 145.111 169.988, 141.285 181.079 C 137.442 192.222, 138.398 199.632, 145.617 214.655 C 149.089 221.881, 159.239 235.736, 164.552 240.500 C 166.857 242.567, 168.369 247.875, 167.384 250.442 C 167.075 251.247, 164.500 253.368, 161.661 255.156 C 150.698 262.061, 144.551 267.162, 127.512 283.500 C 120.221 290.491, 111.566 297.041, 105.583 300.095 C 102.788 301.522, 97.800 304.177, 94.500 305.995 C 84.293 311.618, 83.500 311.943, 81.352 311.382 C 78.825 310.721, 75.197 302.966, 70.410 287.994 C 67.238 278.072, 66.182 273.225, 63.986 258.500 C 60.874 237.635, 60.786 236.501, 61.933 231.957 C 62.563 229.458, 63 225.633, 62.904 223.457 C 62.712 219.107, 64.711 200.276, 65.501 198.999 C 65.773 198.558, 66.669 194.666, 67.493 190.349 C 71.487 169.406, 83.012 144.046, 96.845 125.760 C 104.916 115.091, 125.935 94, 128.497 94 C 129.068 94, 131.308 92.796, 133.474 91.324 C 139.487 87.238, 151.794 81, 153.842 81 C 154.846 81, 156.004 80.663, 156.416 80.251 C 157.217 79.450, 164.627 77.445, 172 76.033 C 174.475 75.559, 177.767 74.683, 179.315 74.086 C 183.601 72.433, 201.375 72.712, 205.654 74.500 C 207.629 75.325, 210.366 76, 211.738 76 C 214.202 76, 222.871 78.476, 226.236 80.141 C 227.191 80.613, 228.766 81.016, 229.736 81.035 C 231.413 81.069, 237.012 83.830, 248.930 90.500 C 258.954 96.110, 276.934 112.810, 286.613 125.500 C 291.225 131.547, 301.189 149.923, 303.063 155.838 C 303.701 157.852, 304.811 160.441, 305.530 161.590 C 306.249 162.740, 307.341 165.665, 307.956 168.090 C 308.571 170.516, 309.699 174.075, 310.462 176 C 315.423 188.524, 319.570 220.809, 318.446 238.155 L 317.741 249.020 321.186 252.260 C 325.227 256.061, 332.851 259.021, 338.500 258.983 C 349.937 258.906, 358.818 248.994, 364.019 230.500 C 365.868 223.927, 366.331 219.378, 366.616 205 C 366.962 187.491, 366.094 178.182, 362.419 160 C 358.621 141.208, 351.301 122.178, 343.395 110.542 C 341.137 107.219, 338.262 102.475, 337.006 100 C 335.750 97.525, 333.772 94.513, 332.611 93.306 C 328.865 89.413, 327.352 87.585, 324.082 83 C 320.592 78.108, 305.697 62.773, 298.570 56.735 C 293.762 52.662, 272.683 38.005, 268.233 35.641 C 266.730 34.842, 262.800 32.971, 259.500 31.482 C 256.200 29.993, 252.696 28.362, 251.713 27.856 C 246.799 25.328, 231.675 21, 227.756 21 C 225.309 21, 222.001 20.373, 220.404 19.607 C 216.991 17.970, 192.349 16.963, 178.500 17.894 M 207.028 166.466 C 205.136 168.746, 206.257 170.601, 208.295 168.563 C 210.135 166.722, 210.535 165, 209.122 165 C 208.640 165, 207.697 165.660, 207.028 166.466 M 398.529 317.125 C 392.387 319.615, 380.415 327.477, 379.623 329.540 C 379.246 330.522, 379.832 331.374, 381.269 331.936 C 382.496 332.415, 385.675 333.751, 388.333 334.904 C 390.991 336.057, 393.973 337, 394.960 337 C 395.948 337, 397.282 337.634, 397.925 338.410 C 398.853 339.528, 398.626 340.149, 396.825 341.410 C 395.577 342.284, 394.048 343, 393.429 343 C 391.182 343, 378.500 350.581, 378.500 351.925 C 378.500 353.147, 388.279 357.881, 394.923 359.876 C 396.256 360.276, 397.831 361.388, 398.423 362.348 C 399.321 363.802, 398.667 364.847, 394.500 368.623 C 384.052 378.089, 380.020 382.223, 380.489 382.983 C 380.950 383.729, 382.059 384.039, 389.762 385.579 C 391.556 385.937, 393.263 386.616, 393.554 387.087 C 394.194 388.123, 387.107 392.722, 377.250 397.667 C 368 402.308, 367.731 404.099, 375.750 407.672 C 383.351 411.059, 394.188 411.315, 402.087 408.295 C 418.362 402.071, 433.432 398.711, 445 398.727 C 455.369 398.741, 468.449 401.490, 469.987 403.979 C 470.277 404.449, 472.263 406.222, 474.400 407.921 C 477.550 410.424, 478.561 410.779, 479.745 409.797 C 480.932 408.812, 481.080 406.714, 480.541 398.543 C 480.177 393.019, 479.631 387.375, 479.330 386 C 477.905 379.507, 473.510 366.239, 472.042 364 C 471.140 362.625, 469.882 360.285, 469.246 358.800 C 467.333 354.337, 457.549 341.822, 451.964 336.696 C 445.943 331.169, 435.722 324.010, 433.805 323.978 C 433.087 323.966, 431.375 323.076, 430 322 C 428.625 320.924, 426.790 320.034, 425.922 320.022 C 425.055 320.010, 421.576 318.875, 418.192 317.500 C 410.831 314.509, 405.243 314.402, 398.529 317.125" stroke="none" fill="black" fill-rule="evenodd"/>
</svg>